<?xml version="1.0" encoding="utf-8"?>
<!-- Generator: Adobe Illustrator 15.0.0, SVG Export Plug-In . SVG Version: 6.00 Build 0)  -->
<!DOCTYPE svg PUBLIC "-//W3C//DTD SVG 1.1//EN" "http://www.w3.org/Graphics/SVG/1.1/DTD/svg11.dtd">
<svg version="1.1" id="parts" xmlns="http://www.w3.org/2000/svg" xmlns:xlink="http://www.w3.org/1999/xlink" x="0px" y="0px"
	 width="1206px" height="500px" viewBox="0 0 1206 500"  xml:space="preserve">
<path id="spa-pt1" fill="#365387" d="M183.005,193.644l219.284-24.534l73.064-139.17C363.399,58.112,263.095,115.551,183.005,193.644z"/>
<path id="spa-pt2" fill="#365387" d="M553.984,248.213l-458.7,51.322c-38.015,57.339-67.1,121.1-85.292,189.317l81.416-9.87L553.984,248.213z"/>
<path id="spa-pt3" fill="#365387" d="M970.493,105.533c-98.128-60.3-213.606-95.1-337.227-95.1c-13.612,0-27.116,0.473-40.522,1.305
	l-75.889,144.553L970.493,105.533z"/>
<path id="spa-pt4" fill="#365387" d="M1198.647,344.765c-31.8-57.74-72.169-110.093-119.424-155.321l-211.343,23.646l207.63,146.604
	L1198.647,344.765z"/>
<polygon id="spa-pt5" fill="#365387" points="758.621,252.824 373.936,444.735 934.231,376.816 "/>
</svg>
