<svg class="sfl-logo" version="1.1" id="Ebene_1" xmlns="http://www.w3.org/2000/svg" xmlns:xlink="http://www.w3.org/1999/xlink" x="0px" y="0px"
	 width="843.569px" height="599.562px" viewBox="0 0 843.569 599.562" enable-background="new 0 0 843.569 599.562"
	 xml:space="preserve" role="img" aria-labelledby="sfl-logo_title sfl-logo_desc">
	 <title id="sfl-logo_title">Logo of Smart Factory Lab, IWB 2014-2020</title>
	 <desc id="sfl-logo_desc">Find logo in various resolutions on the subpage for Press.</desc>
<path id="sfl-logo-building" d="M843.569,563.547V175.371L333.624,0v599.562h1.563l-0.04-0.628L843.569,563.547z M705.647,167.108l90.207,29.549v92.924
	l-90.207-25.927V167.108z M557.391,118.541l101.477,33.239v98.435l-101.477-29.163V118.541z M557.391,260.895l101.477,27.569v98.434
	l-101.477-23.482V260.895z M386.853,62.68l115.208,37.735v104.738l-115.208-33.1V62.68z M386.853,214.562l115.208,31.31v104.732
	l-115.208-26.668V214.562z M386.853,367.901l115.208,24.8v104.744l-115.208-20.173V367.901z"/>
<polygon id="sfl-logo-chimney1" points="743.178,114.758 747.33,86.104 754.17,86.469 749.745,117.014 815.812,139.705 807.425,81.843 773.57,83.633 
	739.703,81.843 735.326,112.061 "/>
<polygon id="sfl-logo-chimney2" points="563.664,52.462 570.323,6.535 580.682,7.081 573.614,55.879 674.477,90.522 661.373,0.078 610.074,2.79 
	558.772,0.078 551.775,48.378 "/>
<g id="sfl-logo-bulpside">
	<polygon id="sfl-logo-bulpflash" points="155.766,154.363 96.226,308.196 132.477,295.297 121.719,390.29 183.285,237.039 144.687,251.728 	
		"/>
	<path id="sfl-logo-bulp" d="M0,103.862v473.936l302.01,21.033V0L0,103.862z M161.045,511.109l-44.356,9.515l-2.914-26.946l50.364-11.7
		L161.045,511.109z M168.134,461.352l-58.087,14.204l-2.888-26.746l64.095-16.813L168.134,461.352z M176.862,390.457l-2.219,20.867
		l-70.596,19.389l-2.022-18.769c-27.636-13.251-46.175-52.568-46.175-104.597c0-72.029,35.931-146.707,82.708-167.912
		c49.724-22.543,92.399,23.346,92.399,103.817C230.956,301.383,208.41,358.331,176.862,390.457z"/>
</g>
</svg>
